<svg xmlns="http://www.w3.org/2000/svg" viewBox="0 0 128 128">
  <rect width="128" height="128" rx="26" fill="#07583d"/>
  <path d="M63 104c-2-17 2-31 0-45-1-10-7-18-13-26 8 5 15 12 18 21 2-10 7-19 15-26-5 10-9 19-10 29 8-9 17-15 28-18-12 7-21 16-27 27-4 9-5 23-4 38Z" fill="#fffdf5"/>
  <path d="M64 102c18 2 34-4 46-17-9 20-27 31-50 30-12-1-22-5-31-12 11 3 23 3 35-1Z" fill="#79b940"/>
  <g fill="#fffdf5">
    <ellipse cx="30" cy="39" rx="8" ry="5" transform="rotate(28 30 39)"/>
    <ellipse cx="42" cy="27" rx="8" ry="5" transform="rotate(58 42 27)"/>
    <ellipse cx="57" cy="22" rx="8" ry="5" transform="rotate(80 57 22)"/>
    <ellipse cx="73" cy="22" rx="8" ry="5" transform="rotate(100 73 22)"/>
    <ellipse cx="89" cy="29" rx="8" ry="5" transform="rotate(122 89 29)"/>
    <ellipse cx="101" cy="41" rx="8" ry="5" transform="rotate(150 101 41)"/>
    <ellipse cx="22" cy="55" rx="8" ry="5" transform="rotate(12 22 55)"/>
    <ellipse cx="38" cy="49" rx="8" ry="5" transform="rotate(35 38 49)"/>
    <ellipse cx="53" cy="42" rx="8" ry="5" transform="rotate(62 53 42)"/>
    <ellipse cx="77" cy="42" rx="8" ry="5" transform="rotate(118 77 42)"/>
    <ellipse cx="92" cy="50" rx="8" ry="5" transform="rotate(145 92 50)"/>
    <ellipse cx="108" cy="57" rx="8" ry="5" transform="rotate(168 108 57)"/>
    <ellipse cx="31" cy="67" rx="8" ry="5" transform="rotate(15 31 67)"/>
    <ellipse cx="47" cy="61" rx="8" ry="5" transform="rotate(42 47 61)"/>
    <ellipse cx="82" cy="61" rx="8" ry="5" transform="rotate(138 82 61)"/>
    <ellipse cx="98" cy="68" rx="8" ry="5" transform="rotate(165 98 68)"/>
  </g>
</svg>
